<?xml version="1.0" encoding="UTF-8"?>
<!DOCTYPE svg PUBLIC "-//W3C//DTD SVG 1.1//EN" "http://www.w3.org/Graphics/SVG/1.1/DTD/svg11.dtd">
<!-- Creator: CorelDRAW X6 -->
<svg xmlns="http://www.w3.org/2000/svg" xml:space="preserve" width="134px" height="32px" version="1.1" style="shape-rendering:geometricPrecision; text-rendering:geometricPrecision; image-rendering:optimizeQuality; fill-rule:evenodd; clip-rule:evenodd"
viewBox="0 0 9797 2340"
 xmlns:xlink="http://www.w3.org/1999/xlink">
 <defs>
  <style type="text/css">
   <![CDATA[
    .fil0 {fill:#FEFEFE;fill-rule:nonzero}
   ]]>
  </style>
 </defs>
 <g id="Layer_x0020_1">
  <metadata id="CorelCorpID_0Corel-Layer"/>
  <path class="fil0" d="M4161 906l-840 0c-39,173 -41,307 -11,408 31,101 96,171 189,215 179,86 575,82 838,79 46,0 88,-1 112,-1l5007 0 28 0 -7 27 -27 108 -4 17 -17 0 -4991 0c-47,0 -88,0 -130,1 -283,3 -674,7 -890,-82 -130,-53 -225,-138 -275,-266 -49,-126 -53,-292 -1,-509 47,-196 141,-358 264,-472 126,-117 281,-184 443,-184 40,0 77,4 110,11 106,23 173,80 213,151l0 0c40,70 54,153 54,233 0,61 -8,121 -19,169l0 0c-7,28 -13,47 -20,69l-4 11 -5 15 -16 0zm-615 -405c-83,71 -144,168 -180,257l666 0c8,-37 13,-76 13,-115 0,-53 -10,-106 -35,-148 -24,-41 -63,-73 -123,-87 -23,-6 -50,-9 -80,-9 -103,0 -191,41 -262,101zm1346 506l0 0 443 -721 6 -11 12 0 144 0 40 0 -21 33 -757 1181 -7 10 -12 0 -124 0 -19 0 -3 -19 -177 -1181 -4 -25 26 0 147 0 19 0 3 19 95 720 0 0c9,57 17,110 23,161 4,29 7,58 9,87 18,-31 37,-63 57,-96 32,-52 65,-106 99,-160zm1244 344c53,-12 95,-28 132,-44l28 -12 3 30 9 100 1 15 -14 7c-36,17 -99,41 -185,57 -60,11 -133,20 -216,20 -51,0 -97,-5 -140,-15 -104,-24 -185,-76 -239,-149 -54,-73 -82,-167 -82,-276 0,-56 7,-117 23,-180 47,-196 141,-358 264,-473 126,-117 281,-184 443,-184 40,0 77,4 110,11 106,23 173,80 213,151l0 0c40,70 54,153 54,233 0,61 -8,121 -19,169l0 0c-7,28 -13,47 -20,69l-4 11 -5 15 -16 0 -840 0c-13,58 -19,110 -19,156 0,89 22,157 61,205 38,48 92,78 156,93 32,7 67,11 103,11 80,0 144,-8 197,-20zm-273 -850c-83,71 -144,168 -180,257l666 0c8,-37 13,-76 13,-115 0,-53 -10,-106 -35,-148 -24,-41 -63,-73 -123,-87 -23,-6 -50,-9 -80,-9 -103,0 -191,41 -262,101zm1930 92c0,51 -7,108 -23,175l-170 716 -4 17 -18 0 -138 0 -28 0 6 -27 166 -699c12,-51 19,-101 19,-147 0,-55 -10,-103 -34,-141 -23,-36 -59,-63 -112,-75 -21,-5 -46,-8 -73,-8 -93,0 -185,40 -260,102 -79,65 -139,154 -161,246l-174 731 -4 17 -18 0 -138 0 -28 0 6 -27 212 -893c25,-106 40,-184 56,-268l4 -19 3 -18 18 0 124 0 26 0 -5 26 -24 132c46,-47 101,-89 164,-121l0 0c78,-40 168,-65 263,-65 26,0 57,3 91,10 57,13 119,40 167,93 48,53 82,130 82,242zm295 -317l178 0 47 -199 3 -12 12 -4 147 -48 37 -12 -9 38 -57 237 301 0 28 0 -6 27 -25 107 -4 17 -18 0 -311 0 -173 727c-17,71 -20,127 -4,165 14,33 44,51 96,51 29,0 53,-2 74,-5l0 0c21,-3 39,-8 55,-13l33 -11 -4 34 -12 105 -1 13 -13 5c-23,9 -51,16 -83,21 -29,4 -61,7 -97,7 -136,0 -202,-54 -228,-134l0 0c-25,-75 -11,-172 11,-264l167 -700 -168 0 -28 0 6 -27 25 -107 4 -17 18 0zm768 128l26 -111 4 -17 18 0 864 0 28 0 -6 27 -21 90 -6 10 -806 808c-30,30 -58,58 -85,85 -17,17 -34,33 -52,50l700 0 28 0 -6 27 -26 111 -4 17 -18 0 -924 0 -28 0 6 -27 19 -81 6 -10 809 -812c29,-30 58,-58 88,-87 18,-18 37,-35 56,-53l-648 0 -28 0 6 -27z"/>
  <path class="fil0" d="M1132 280l-44 157 -5 0c-52,-116 -157,-186 -315,-186 -331,0 -642,297 -709,764 -55,382 101,705 456,705 137,0 268,-57 357,-160l5 0 -12 80c-33,230 -174,348 -376,348 -147,0 -275,-41 -356,-85l-134 346c115,59 281,90 455,90 681,0 829,-431 882,-795l117 -816c29,-199 56,-336 78,-449l-399 0zm-199 852c-26,183 -128,248 -227,248 -145,0 -213,-145 -180,-372 34,-237 152,-397 296,-397 97,0 175,77 152,240l-40 281zm1465 -880c-407,0 -747,276 -817,764 -67,467 174,746 584,746 323,0 722,-199 804,-764 63,-436 -148,-746 -571,-746zm102 754c-33,232 -132,426 -282,426 -158,0 -202,-183 -167,-426 29,-201 116,-423 289,-423 158,0 191,209 160,423z"/>
 </g>
</svg>
