<?xml version="1.0" encoding="UTF-8"?>
<!DOCTYPE svg PUBLIC "-//W3C//DTD SVG 1.1//EN" "http://www.w3.org/Graphics/SVG/1.1/DTD/svg11.dtd">
<!-- Creator: CorelDRAW X6 -->
<svg xmlns="http://www.w3.org/2000/svg" xml:space="preserve" width="50px" height="30px" version="1.1" style="shape-rendering:geometricPrecision; text-rendering:geometricPrecision; image-rendering:optimizeQuality; fill-rule:evenodd; clip-rule:evenodd"
viewBox="0 0 467 277"
 xmlns:xlink="http://www.w3.org/1999/xlink">
 <defs>
  <style type="text/css">
   <![CDATA[
    .fil0 {fill:#002D6D}
    .fil2 {fill:#0097D4}
    .fil5 {fill:#D30329}
    .fil1 {fill:#E20024}
    .fil4 {fill:#FDEFF0}
    .fil3 {fill:white}
   ]]>
  </style>
 </defs>
 <g id="Layer_x0020_1">
  <metadata id="CorelCorpID_0Corel-Layer"/>
  <g id="_923419232">
   <polygon class="fil0" points="467,0 0,0 0,277 467,277 "/>
   <path class="fil1" d="M387 160c5,-1 6,6 2,7 -5,1 -7,-6 -2,-7zm-49 -28c1,-1 2,-3 4,-4 5,-5 9,-9 18,-10 27,-3 32,23 22,38 -2,4 -5,5 -7,7 -5,9 -47,16 -43,-18 0,-2 2,-8 2,-9 -4,-1 -5,-1 -8,0 -2,4 -3,9 -4,14 -1,5 -2,10 -3,15l-3 0 0 3 -14 0 9 -47 3 0 1 -3 13 0 -1 6c5,-4 6,-9 16,-6l-5 12zm-36 -1l0 3 -4 0c-1,4 -2,10 -3,14 -2,8 0,8 8,7l-2 10 -3 1 0 3c-6,1 -14,3 -19,-1 -4,-4 -3,-12 -1,-18 2,-10 6,-29 7,-38l3 0 1 -3 14 0 -2 11 7 0 -2 11 -3 0zm-69 -77c-1,1 -2,2 -3,3 -1,1 -2,2 -3,3 -1,1 -5,5 -5,6l23 0c1,1 8,10 9,12l-40 0c-1,3 -5,8 -6,12l53 0c1,0 5,11 5,12l-63 0c-1,0 -4,10 -4,12l70 0 1 4 10 1 -2 11 -3 0 -1 4 -3 0 0 7c1,1 2,1 2,2 3,3 4,6 3,10 0,6 -3,9 -7,11 -1,1 -2,2 -3,3l-2 7 -63 0c0,4 4,9 5,12l53 0c-1,3 -5,9 -6,12l-40 0c1,3 8,11 8,12l23 0c-2,3 -8,9 -11,12 1,2 9,8 12,10 41,28 95,27 134,-3 1,-1 2,-1 3,-2l8 -7c2,-2 3,-3 5,-5 1,-1 1,-2 2,-3 16,-18 26,-45 26,-73 0,-50 -32,-87 -64,-102 -32,-15 -69,-16 -101,1 -5,2 -9,5 -13,8l-9 7c-1,1 -2,2 -3,2z"/>
   <path class="fil2" d="M236 148l-1 3 -24 0c2,7 13,7 20,5 3,-1 5,-2 7,-2l-2 11 -1 0c0,0 -1,0 -1,0 -1,0 -1,0 -2,0 2,0 0,0 1,0 -1,3 -1,2 -3,3 -5,1 -11,2 -16,1 -30,-3 -19,-39 -10,-43 2,-1 3,-3 5,-5 13,-10 40,-5 31,24l-3 0zm-78 -23c0,-1 0,-2 1,-3 4,-2 16,-3 21,-2 20,2 15,17 12,30l-3 15c0,3 0,2 -4,2l0 3 -12 0 0 -4c-2,1 -4,4 -11,5 -12,1 -18,-6 -16,-16 1,-4 4,-10 6,-10 3,-3 5,-5 10,-7 4,-2 10,-2 15,-2 -2,-7 -19,-2 -24,-2l2 -11 3 -1c1,0 0,-1 0,1zm-18 42l-1 3 -14 0 6 -34c-1,1 -8,19 -10,23 -1,3 -2,5 -3,8l-2 0 -1 3 -12 0 -2 -35 -6 32 -3 0 -1 3 -13 0 11 -58 3 0c1,-2 0,-3 1,-3 4,0 19,0 22,0l1 30c0,-4 10,-22 11,-27l3 0 2 -3 23 0c0,2 -5,25 -5,29 -2,9 -3,20 -6,29l-3 0zm94 56c3,-2 9,-9 11,-12l-23 0c-1,-2 -7,-9 -8,-12l40 0c1,-3 5,-8 6,-12l-53 0c-1,-3 -4,-9 -5,-12l63 0 2 -7c-2,1 -4,2 -7,2 -9,2 -16,0 -25,0l2 -11c1,0 1,0 1,0 1,0 1,0 1,1l1 -5c6,1 11,3 18,1 0,-3 -1,-3 -3,-4 -4,-2 -9,-3 -13,-8 -6,-8 1,-19 4,-19 0,0 1,-1 2,-2 5,-5 13,-5 20,-5l-1 -4 -70 0c0,-2 3,-12 4,-12l63 0c0,-1 -4,-12 -5,-12l-53 0c1,-4 5,-9 6,-12l40 0c-1,-2 -7,-11 -9,-12l-23 0c1,-1 4,-5 5,-6 1,-1 2,-2 3,-3 1,-1 2,-2 3,-3l-6 -5c-34,-27 -81,-32 -121,-13 -33,16 -64,52 -64,103 0,50 32,87 65,102 22,10 44,14 70,9 16,-3 32,-10 44,-18 2,-2 10,-7 11,-9z"/>
   <path class="fil3" d="M129 113l-14 32 0 -5 -1 -30c-3,-1 -18,0 -22,0 -1,0 -1,1 -1,3l-10 54 10 0 3 0 6 -32 2 -11 2 43 11 0 2 0c1,-2 2,-5 3,-8 2,-4 9,-21 10,-23l5 -13 -8 43 11 0 3 0c2,-9 4,-20 6,-29 1,-4 6,-26 5,-29l-23 0 -2 3z"/>
   <path class="fil3" d="M366 154c-4,5 -11,3 -13,-2 -2,-5 -1,-13 2,-17 3,-6 13,-8 15,0 2,7 -1,16 -5,19zm-24 -25c-2,4 -5,6 -6,17 -1,14 7,23 21,23 8,0 12,-1 18,-4 2,-2 4,-3 7,-7 9,-16 5,-41 -22,-38 -9,1 -13,4 -18,10z"/>
   <path class="fil3" d="M174 156c-3,4 -13,3 -11,-5 1,-2 3,-3 6,-4 3,-1 7,-1 9,0 0,4 -2,8 -4,9zm-16 -31l-1 7c4,0 6,-2 15,-2 8,0 10,1 9,7l-3 0c-5,0 -10,0 -15,2 -5,2 -7,4 -10,7 -2,4 -3,6 -3,12 1,9 10,12 18,10 5,-1 7,-3 10,-5l0 4 8 0c3,0 3,1 4,-2l3 -15c2,-13 8,-29 -12,-30 -5,-1 -16,0 -21,2 -1,1 0,2 -1,3z"/>
   <path class="fil3" d="M214 134c3,-6 15,-6 14,4l-3 0 -13 0 1 -4c0,0 0,0 0,0 0,0 0,0 0,0zm-11 -6c-1,1 -1,2 -2,3 -2,4 -3,7 -4,11 -2,12 3,22 15,25 7,2 12,1 19,0 1,0 1,0 2,0 0,0 1,0 1,0l1 0 2 -11c-2,1 -4,2 -7,2 -7,1 -18,2 -20,-5l0 -3c3,-1 21,0 25,0l3 0c9,-29 -18,-34 -31,-24 -2,1 -3,3 -5,5z"/>
   <path class="fil3" d="M247 126c-10,23 16,19 15,27 0,2 -2,3 -4,3 -6,1 -12,0 -18,-1l-1 5 -1 6c5,1 10,2 16,1 8,0 8,-1 14,-3 4,-3 6,-5 7,-11 0,-4 0,-7 -3,-10 -1,-1 -2,-1 -2,-2 -1,0 -2,-1 -3,-1 -1,0 -2,-1 -3,-1 -3,-1 -5,-1 -5,-5 1,-3 3,-3 6,-4 3,0 6,0 9,0l3 0 2 -11 -10 -1c-7,0 -15,0 -20,5 0,0 -1,2 -2,2z"/>
   <path class="fil3" d="M288 113c-2,11 -4,23 -6,35 -1,6 -3,13 0,17 3,4 10,4 16,3l3 -1 2 -10c-8,1 -9,1 -8,-7 1,-4 2,-10 3,-14 0,-1 0,-3 1,-3l4 0 3 0 2 -11 -7 0 2 -11 -14 0 -1 3z"/>
   <path class="fil3" d="M314 123l-8 44 11 0 3 0c1,-4 2,-10 3,-15 1,-5 2,-10 4,-14 2,-4 4,-5 10,-4l1 -1 5 -12c-11,-2 -11,2 -16,6l1 -6 -13 0 -1 3z"/>
   <path class="fil1" d="M356 135c-3,4 -4,11 -2,17 2,5 9,7 13,2 1,-3 2,-4 2,-7 0,-3 0,-6 -1,-8 -2,-5 -7,-6 -12,-3z"/>
   <path class="fil0" d="M338 132l-1 1c-6,-1 -8,0 -10,4 3,-1 4,-2 8,0 0,1 -2,6 -2,9 -4,34 38,27 43,18 -6,3 -10,5 -18,4 -14,-1 -22,-9 -21,-23 0,-10 4,-13 6,-17 -2,1 -3,3 -4,4z"/>
   <path class="fil0" d="M231 167c-7,1 -12,2 -19,0 -13,-3 -17,-13 -15,-25 1,-5 2,-8 4,-11 1,-1 1,-2 2,-3 -9,4 -20,40 10,43 6,1 11,0 16,-1 3,-1 3,0 3,-3 0,-1 1,-1 -1,0z"/>
   <path class="fil0" d="M298 167c-6,1 -13,1 -16,-3 -3,-4 -1,-12 0,-17 2,-12 5,-23 6,-35l-3 0c-1,9 -5,28 -7,38 -1,6 -3,14 1,18 5,4 12,2 19,1l0 -3z"/>
   <polygon class="fil0" points="90,167 80,167 91,113 88,113 77,170 90,170 "/>
   <path class="fil0" d="M185 167l-8 0 0 -4c-3,2 -5,4 -10,5 -8,2 -17,-1 -18,-10 -1,-5 1,-8 3,-12 -2,0 -6,6 -6,10 -2,10 5,17 16,16 8,-1 9,-4 11,-5l0 4 12 0 0 -3z"/>
   <polygon class="fil0" points="317,167 306,167 314,123 311,123 302,170 316,170 "/>
   <polygon class="fil0" points="131,137 124,170 139,170 139,167 128,167 136,124 "/>
   <path class="fil0" d="M259 157c2,-1 3,-1 4,-3 1,-8 -25,-4 -15,-27 -2,0 -10,11 -4,19 3,5 8,6 13,8 2,1 3,1 3,4z"/>
   <polygon class="fil0" points="100,135 101,170 114,170 115,167 104,167 102,124 "/>
   <path class="fil0" d="M267 168c1,-1 2,-2 3,-3 -6,2 -6,3 -14,3 -5,0 -11,-1 -16,-1l1 -6c0,-1 0,-1 -1,-1 -1,0 -1,0 -1,0l-2 11c8,1 16,2 25,0 3,-1 4,-2 7,-2z"/>
   <path class="fil0" d="M176 137l3 0c1,-6 -1,-7 -9,-7 -9,0 -11,2 -15,2l1 -7c0,-2 0,0 0,-1l-3 1 -2 11c5,-1 22,-5 24,2z"/>
   <path class="fil0" d="M356 135c5,-2 10,-2 12,3 1,2 1,5 1,8 0,3 -1,4 -2,7 4,-2 7,-12 5,-19 -3,-8 -12,-5 -15,0z"/>
   <path class="fil0" d="M211 151l24 0 1 -3c-4,0 -22,-1 -25,0l0 3z"/>
   <path class="fil2" d="M163 151c-3,8 8,9 11,5 0,-1 1,-4 1,-6 -3,-1 -9,0 -12,1z"/>
   <path class="fil0" d="M115 140l0 5 14 -32 -3 0c-1,5 -11,23 -11,27z"/>
   <path class="fil0" d="M214 134c3,0 4,-1 7,0 3,1 3,2 4,5l3 0c2,-11 -10,-10 -14,-4z"/>
   <path class="fil2" d="M260 134c0,3 2,4 5,5 1,0 2,1 3,1 1,0 2,1 3,1l0 -7c-3,-1 -8,-1 -11,0z"/>
   <path class="fil0" d="M163 151c3,-1 8,-2 12,-1 0,2 -1,5 -1,6 2,-2 4,-5 4,-9 -2,-1 -6,0 -9,0 -3,1 -5,2 -6,4z"/>
   <path class="fil2" d="M214 134c0,0 0,0 0,0 0,0 0,0 0,0l-1 4 13 0c-1,-3 -1,-4 -4,-5 -3,-1 -5,0 -7,0z"/>
   <path class="fil0" d="M260 134c3,0 8,0 11,0l3 0 1 -4c-3,0 -6,0 -9,0 -3,0 -5,1 -6,4z"/>
   <path class="fil3" d="M387 161c3,-1 5,4 2,5 -3,1 -6,-3 -2,-5zm0 -1c-5,1 -3,8 2,7 4,-1 3,-8 -2,-7z"/>
   <path class="fil1" d="M411 200c3,-2 5,4 2,5 -3,1 -5,-3 -2,-5zm-3 3c0,2 2,3 5,3 2,0 3,-2 3,-5 -1,-4 -8,-3 -7,2z"/>
   <path class="fil0" d="M411 200l2 0 0 2c0,1 0,0 0,1 -1,-1 0,0 -1,-1 -1,1 0,1 -1,1l0 -3zm0 -1c-3,2 -1,6 2,5 3,-1 1,-7 -2,-5z"/>
   <path class="fil1" d="M387 162c1,0 1,0 2,0 0,0 0,3 0,3 -1,0 -1,0 -1,-1 -1,1 -1,1 -1,1l0 -3zm1 -1c-4,2 -1,6 2,5 3,-1 1,-6 -2,-5z"/>
   <path class="fil0" d="M298 135l4 0 0 -3 -4 0c-1,1 -1,2 -1,3z"/>
   <path class="fil4" d="M387 165c1,0 1,0 1,-1 0,2 0,1 1,1 0,0 1,-3 0,-3 -1,-1 -1,0 -2,0l0 3z"/>
   <path class="fil5" d="M411 204c1,0 1,0 1,-1 1,1 0,1 1,1 0,0 0,0 0,-1l0 -2 -2 0 0 3z"/>
  </g>
 </g>
</svg>
