<?xml version="1.0" encoding="UTF-8"?>
<!DOCTYPE svg PUBLIC "-//W3C//DTD SVG 1.1//EN" "http://www.w3.org/Graphics/SVG/1.1/DTD/svg11.dtd">
<!-- Creator: CorelDRAW X6 -->
<svg xmlns="http://www.w3.org/2000/svg" xml:space="preserve" width="50px" height="29px" version="1.1" style="shape-rendering:geometricPrecision; text-rendering:geometricPrecision; image-rendering:optimizeQuality; fill-rule:evenodd; clip-rule:evenodd"
viewBox="0 0 328 190"
 xmlns:xlink="http://www.w3.org/1999/xlink">
 <defs>
  <style type="text/css">
   <![CDATA[
    .fil1 {fill:#E31E24}
    .fil6 {fill:#FEFEFE}
    .fil4 {fill:#192168}
    .fil0 {fill:#23164A}
    .fil2 {fill:#FCA311}
    .fil3 {fill:#FEFEFE}
    .fil5 {fill:#FEFEFE;fill-rule:nonzero}
    .fil7 {fill:#FCA311;fill-rule:nonzero}
   ]]>
  </style>
 </defs>
 <g id="Layer_x0020_1">
  <metadata id="CorelCorpID_0Corel-Layer"/>
  <g id="_751508576">
   <polygon class="fil0" points="0,0 328,0 328,190 0,190 "/>
   <g>
    <circle class="fil1" cx="109" cy="95" r="82"/>
    <path class="fil2" d="M164 34c-1,2 -3,3 -4,4 -1,1 -3,3 -4,4 5,0 11,0 16,0 1,0 1,0 1,1 1,2 5,6 6,8l-29 0c-1,2 -4,6 -5,9l38 0c1,1 3,7 4,9l-45 0c-1,0 -2,8 -3,9 -2,0 -8,0 -9,0l9 0 50 0 1 5c-1,0 -1,0 -2,0l2 0c1,12 1,12 -1,31l-2 8 -45 0c0,1 1,3 2,5 0,1 1,4 2,4l38 0c0,1 -4,8 -5,9l-29 0c1,2 5,7 6,9l17 0c-1,2 -8,8 -8,9l4 3c1,1 3,2 4,3 24,17 57,19 82,6 4,-2 7,-4 10,-6 1,-1 3,-2 4,-3 5,-4 5,-4 10,-9 0,0 1,-1 1,-1 1,-1 6,-8 7,-9 8,-12 14,-27 14,-46 0,-53 -48,-89 -97,-81 -8,1 -16,4 -22,8 -3,2 -6,4 -9,6l-8 7z"/>
    <path class="fil3" d="M41 77c0,3 -7,38 -6,39l6 0 2 0 3 -18 2 -13 1 31 4 0 2 0 7 -20 4 -11 -5 31 7 0 2 0 1 -6 1 -5 5 -31 -13 0c-1,0 -1,1 -1,2l-8 23 0 -6 0 -19 -12 0c-1,0 0,0 -1,1 0,0 0,1 0,1z"/>
    <path class="fil3" d="M276 108c-1,1 -3,1 -5,0 -1,-1 -2,-2 -2,-4 0,-3 0,-9 2,-10 1,-1 3,-3 5,-3 2,0 3,2 4,5 1,5 -1,11 -4,13zm8 -31l-1 9c-1,0 -1,-1 -2,-2 -2,-1 -3,-3 -8,-2 -1,0 -3,1 -4,1 -1,1 -2,1 -3,2 0,1 -1,1 -2,2 -1,1 -1,1 -1,2 -1,2 -2,3 -2,5 -2,7 -2,19 7,21 7,2 10,-2 11,-3l0 3 6 0c1,0 2,0 2,-1 0,-1 0,-2 0,-3l3 -17c1,-4 3,-20 4,-22l-9 0 0 2z"/>
    <path class="fil3" d="M88 109c-3,2 -7,-1 -5,-5 1,-3 5,-3 9,-3 0,3 -1,7 -4,8zm-9 -24l-1 6c4,-1 5,-1 10,-1 3,0 7,1 5,5l-2 0c-3,0 -6,0 -9,1 -1,0 -2,1 -3,2 -1,1 -2,2 -2,3 -1,3 -2,4 -2,8 0,3 1,5 3,7 3,3 8,2 12,0 1,-1 2,-1 3,-2l0 3 5 0 2 0c1,0 1,-5 1,-6l2 -13 1 -6c0,-3 -1,-5 -2,-7 -3,-3 -10,-3 -15,-3 -7,1 -5,1 -6,3z"/>
    <path class="fil3" d="M229 109c-1,1 -4,1 -5,0 -1,-1 -1,-3 -1,-5 1,-1 2,-2 3,-3 2,0 4,-1 6,0 0,3 -2,7 -4,8zm-9 -24l-1 6c3,-1 5,-1 10,-1 4,0 6,1 5,5l-2 0c-3,0 -6,0 -9,1 -2,1 -4,2 -5,3 0,1 -1,1 -1,1 -1,3 -2,3 -2,8 0,9 9,10 15,7 1,-1 1,-1 2,-2 1,-1 0,0 1,-1l0 3 5 0c3,0 2,1 3,-5 0,-2 1,-5 1,-7 1,-4 2,-11 2,-15 -1,-12 -19,-8 -22,-6l0 2z"/>
    <path class="fil3" d="M152 92c1,-2 3,-3 6,-3 2,1 3,3 3,6l-3 0 -7 0c0,-1 1,-2 1,-3zm-6 -5c-2,4 -3,5 -4,10 -1,4 0,9 1,13 1,3 4,5 8,6 5,1 8,1 13,0l2 -1 1 -8c-2,0 -3,1 -4,1 -4,1 -11,1 -12,-4l0 -2 16 0 2 0c2,-8 2,-15 -4,-19 -3,-2 -7,-2 -10,-1 -4,1 -6,3 -7,5z"/>
    <path class="fil3" d="M198 77c-1,1 -2,1 -2,2 -12,11 -11,43 14,37 3,-1 2,0 3,-3l1 -7 -1 0c-6,3 -12,2 -14,-4 -2,-6 0,-13 3,-16 1,-1 3,-3 5,-3 3,-1 5,0 8,1l2 1 1 -9c-2,-1 -8,-2 -10,-2 -5,0 -7,2 -10,3z"/>
    <path class="fil3" d="M106 87c-2,5 -3,10 2,14 3,3 8,3 7,6 0,1 -1,2 -3,2 -4,1 -7,0 -10,-1 0,1 0,2 -1,3l-1 5c6,1 13,2 19,-1 1,0 1,-1 2,-1 1,-1 1,-1 1,-2 1,-4 2,-5 1,-9 -1,-3 -2,-5 -5,-6 -2,-1 -6,-2 -6,-5 0,-3 6,-3 9,-2l2 0 1 -8c-2,-1 -9,-1 -12,0 -4,1 -6,2 -8,5z"/>
    <path class="fil3" d="M129 80c-1,7 -3,15 -4,23 -2,10 -2,16 10,14 2,-1 2,0 3,-2l1 -5c0,-1 0,-1 0,-1 -1,1 -4,0 -5,-1 -1,-1 0,-3 0,-5 1,-3 1,-7 2,-10l0 -2 3 0 1 0 1 -8 -5 0 1 -5 -9 0 -1 2z"/>
    <path class="fil3" d="M173 85c0,5 -1,11 -2,16 0,3 -3,14 -2,16l7 0 2 0c1,-2 1,-8 2,-11 1,-3 1,-7 2,-10 1,-3 2,-4 5,-4 1,-4 2,-7 3,-10l-2 0c-4,1 -5,4 -6,5l0 -5c-1,0 -7,0 -8,0l0 2z"/>
    <path class="fil3" d="M247 85c0,5 -1,11 -2,16 0,2 -2,15 -2,16l7 0c3,0 2,1 3,-4 0,-2 1,-4 1,-6 1,-4 1,-7 2,-11 1,-1 1,-2 2,-3 1,-1 3,-1 3,-1 1,-4 2,-7 3,-10 -5,-1 -6,2 -8,4 0,0 0,0 0,0l0 -4c-1,0 -7,0 -8,0l0 2z"/>
    <path class="fil4" d="M190 82c-1,3 -3,6 -3,10 -3,0 -4,1 -5,4 1,-1 2,-1 5,-1 0,3 -1,5 0,10 1,5 2,6 3,8 1,1 2,2 3,3 5,4 11,3 17,2l0 -2c-25,6 -25,-26 -14,-37 1,-1 2,-1 2,-2 -2,1 -3,2 -4,2 -1,1 -2,2 -3,3l-1 0z"/>
    <path class="fil4" d="M260 92c-1,1 -2,0 -3,1 -1,1 -1,2 -2,3 1,-1 2,-1 4,-1 -2,7 -4,14 0,20 1,2 4,4 8,5 5,0 7,-2 9,-4l0 3c2,0 4,0 6,0 3,0 3,1 3,-2l-6 0 0 -3c-1,1 -5,5 -11,3 -8,-3 -9,-14 -7,-21 1,-2 1,-4 2,-5 0,-1 1,-2 1,-2 1,-1 1,-1 2,-2 -2,1 -4,4 -6,6z"/>
    <path class="fil4" d="M139 108c1,0 0,0 0,1 1,3 1,4 3,6 5,5 17,4 21,2l0 -2c-5,0 -8,1 -13,0 -4,-1 -6,-3 -8,-6 -2,-4 -2,-8 -1,-13 1,-5 2,-6 4,-10 -2,2 -4,5 -6,9 -1,4 -2,8 -1,13z"/>
    <path class="fil4" d="M123 103c0,4 0,5 -1,9 1,8 6,8 13,6l0 -2c-12,2 -12,-4 -10,-14 1,-7 3,-15 4,-23l-2 0 -4 23z"/>
    <path class="fil4" d="M41 116l-6 0c0,-1 6,-36 6,-39l-2 0 -7 42 8 0 0 -2z"/>
    <path class="fil4" d="M249 116l-7 0c0,-1 2,-14 2,-16 1,-5 2,-11 2,-16l-2 0 -4 25c0,2 -1,6 -1,9l9 0 0 -2z"/>
    <path class="fil4" d="M72 106l-1 5c1,9 7,11 13,9 3,-1 3,-2 5,-3l0 3 7 0 0 -2 -5 0 0 -3c-1,1 -1,1 -3,2 -3,2 -9,2 -12,0 -2,-1 -3,-4 -3,-7 0,-4 1,-5 2,-8 -2,1 -3,3 -4,5z"/>
    <path class="fil4" d="M175 116l-7 0c0,-2 2,-13 2,-16 1,-5 2,-11 2,-16l-2 0c-1,6 -1,12 -2,17l-3 17c2,0 7,0 9,0l0 -2z"/>
    <path class="fil4" d="M212 107l1 0 -1 7c1,2 2,6 7,6 2,0 4,0 6,-1 2,-1 3,-2 4,-3l0 3c2,0 6,0 7,0l0 -2 -5 0 0 -3c-1,0 0,0 -1,1 -1,1 -1,1 -2,2 -6,3 -14,2 -15,-7 0,-5 1,-5 2,-8 -2,1 -4,4 -4,6z"/>
    <polygon class="fil4" points="46,99 46,119 52,119 53,116 49,116 48,85 "/>
    <polygon class="fil4" points="62,96 59,119 68,119 68,116 61,116 66,85 "/>
    <path class="fil4" d="M102 91l-1 6c1,4 2,5 5,7 2,1 6,2 6,5 1,0 2,-1 3,-2 1,-3 -4,-3 -7,-6 -5,-4 -4,-9 -2,-14 -1,0 -2,1 -2,2 -1,1 -1,2 -1,3z"/>
    <path class="fil4" d="M231 95l2 0c1,-5 -1,-5 -5,-5 -4,0 -6,1 -10,1l1 -6 -2 0c-1,1 -1,6 -1,8 3,-1 14,-4 15,1z"/>
    <path class="fil4" d="M91 95l2 0c2,-4 -2,-5 -5,-5 -4,0 -6,1 -10,1l1 -6c-2,0 -2,0 -2,1l-1 7c4,-1 14,-4 15,1z"/>
    <path class="fil4" d="M98 116l0 2c4,0 8,1 12,1 4,0 7,-2 9,-4 -6,3 -12,2 -19,1l1 -5 -2 0c0,1 0,5 -1,6z"/>
    <path class="fil4" d="M271 93c4,-1 6,0 7,4 0,2 0,4 0,5 0,2 -1,3 -1,5 3,-2 5,-7 4,-13 0,-2 -2,-4 -4,-5 -3,0 -5,1 -5,3z"/>
    <path class="fil4" d="M55 94l0 6 8 -23 -2 0c-1,2 -2,6 -3,8 -1,2 -2,7 -3,8z"/>
    <polygon class="fil4" points="150,105 165,105 166,102 150,102 "/>
    <path class="fil4" d="M201 86c2,0 3,-2 7,-1 2,0 5,2 6,2l0 -3c-3,-1 -5,-2 -8,-1 -2,0 -5,2 -5,3z"/>
    <path class="fil4" d="M152 92c3,-1 5,0 6,3l3 0c0,-3 0,-5 -3,-6 -3,-1 -5,1 -6,3z"/>
    <path class="fil4" d="M223 104c2,-1 4,-1 7,-1 0,2 -1,4 -1,5 2,-1 4,-4 4,-8 -2,0 -4,0 -6,0 -2,1 -3,1 -3,3z"/>
    <path class="fil4" d="M83 104c2,-1 4,-1 7,-1 0,2 -1,4 -1,5 2,-1 4,-4 4,-8 -4,0 -8,0 -9,3z"/>
    <path class="fil4" d="M113 92c2,0 8,0 8,0l0 -3c-3,0 -8,-1 -9,2z"/>
    <path class="fil4" d="M280 85c0,1 1,2 2,2l1 -9c-3,0 -2,-1 -3,4 0,1 -1,3 -1,4z"/>
    <polygon class="fil4" points="136,93 139,93 140,91 137,91 "/>
    <path class="fil5" d="M294 115l-1 0 0 -1c0,0 0,0 0,0 0,0 0,0 0,0 0,0 0,0 0,0 0,0 0,0 0,0l0 0 0 1 0 0 0 -3 1 0c0,0 0,0 0,0 0,0 0,0 0,0 0,0 0,0 0,0 0,0 0,0 0,0 0,0 0,0 0,0 0,0 0,0 0,0 0,0 0,0 0,0 0,0 0,0 0,0l0 0c0,0 0,0 0,0 0,0 0,0 0,0 0,0 0,0 0,0 0,0 0,0 0,0l1 1zm-2 -2l0 1 0 0c0,0 0,0 0,0 0,0 0,0 0,0 0,0 0,0 0,0 0,0 0,0 0,0 0,0 0,0 0,0 0,0 0,0 0,0l0 0z"/>
    <path class="fil6" d="M293 111c2,0 3,1 3,3 0,2 -1,3 -3,3 -2,0 -3,-1 -3,-3 0,-2 1,-3 3,-3zm0 0c1,0 2,1 2,2 0,1 -1,2 -2,2 -1,0 -2,-1 -2,-2 0,-1 1,-2 2,-2z"/>
    <path class="fil7" d="M295 142l-1 0 0 -1c0,0 0,0 0,0 0,0 0,0 0,0 0,0 0,0 0,0 0,0 0,0 0,0l0 0 0 1 0 0 0 -3 1 0c0,0 0,0 0,0 0,0 0,0 0,0 0,0 0,0 0,0 0,0 0,0 0,0 0,0 0,0 0,0 0,0 0,0 0,0 0,0 0,0 0,0 0,0 0,0 0,0l0 0c0,0 0,0 0,0 0,0 0,0 0,0 0,0 0,0 0,0 0,0 0,0 0,0l1 1zm-2 -2l0 1 0 0c0,0 0,0 0,0 0,0 0,0 0,0 0,0 0,0 0,0 0,0 0,0 0,0 0,0 0,0 0,0 0,0 0,0 0,0l0 0z"/>
    <path class="fil2" d="M294 138c2,0 3,1 3,3 0,2 -1,3 -3,3 -2,0 -3,-1 -3,-3 0,-2 1,-3 3,-3zm0 0c1,0 2,1 2,2 0,1 -1,2 -2,2 -1,0 -2,-1 -2,-2 0,-1 1,-2 2,-2z"/>
   </g>
  </g>
 </g>
</svg>
