<?xml version="1.0" encoding="UTF-8"?>
<!DOCTYPE svg PUBLIC "-//W3C//DTD SVG 1.1//EN" "http://www.w3.org/Graphics/SVG/1.1/DTD/svg11.dtd">
<!-- Creator: CorelDRAW X6 -->
<svg xmlns="http://www.w3.org/2000/svg" xml:space="preserve" width="50px" height="30px" version="1.1" style="shape-rendering:geometricPrecision; text-rendering:geometricPrecision; image-rendering:optimizeQuality; fill-rule:evenodd; clip-rule:evenodd"
viewBox="0 0 591 351"
 xmlns:xlink="http://www.w3.org/1999/xlink">
 <defs>
  <style type="text/css">
   <![CDATA[
    .fil0 {fill:#91A5D3}
    .fil1 {fill:#FEFEFE;fill-rule:nonzero}
   ]]>
  </style>
 </defs>
 <g id="Layer_x0020_1">
  <metadata id="CorelCorpID_0Corel-Layer"/>
  <g id="_952422992">
   <polygon class="fil0" points="591,0 0,0 0,351 591,351 "/>
   <polygon class="fil1" points="192,84 214,84 234,128 234,84 255,84 255,160 233,160 213,117 213,160 192,160 "/>
   <polygon id="1" class="fil1" points="275,84 331,84 331,94 296,94 296,116 326,116 326,127 296,127 296,149 331,149 331,160 275,160 "/>
   <polygon id="2" class="fil1" points="404,84 404,94 383,94 383,160 361,160 361,94 341,94 341,84 "/>
   <path id="3" class="fil1" d="M40 196l34 0c19,0 29,5 29,16l0 12c0,5 -4,9 -12,11 8,2 12,6 12,11l0 12c0,11 -10,16 -30,16l-32 0 0 -77zm22 11l0 22 7 0c3,0 5,0 6,0 4,-1 6,-2 6,-5l0 -12c0,-4 -3,-5 -10,-5l-10 0zm0 33l0 22 10 0c6,0 10,-2 10,-5l0 -12c0,-2 -2,-4 -6,-5 -1,0 -3,0 -6,0l-7 0z"/>
   <path id="4" class="fil1" d="M181 245l7 27 -22 0 -4 -16 -22 0 -4 16 -22 0 7 -27 15 -50 30 0 15 49zm-22 0l-8 -32 -8 32 17 0z"/>
   <polygon id="5" class="fil1" points="201,196 223,196 243,240 243,196 264,196 264,272 242,272 222,229 222,272 201,272 "/>
   <polygon id="6" class="fil1" points="323,234 352,272 328,272 305,238 305,272 284,272 284,196 305,196 305,230 328,196 352,196 "/>
   <polygon id="7" class="fil1" points="365,196 387,196 387,272 365,272 "/>
   <polygon id="8" class="fil1" points="407,196 429,196 450,240 450,196 470,196 470,272 448,272 428,229 428,272 407,272 "/>
   <path id="9" class="fil1" d="M551 258c0,11 -10,16 -31,16 -21,0 -31,-5 -31,-16l0 -47c0,-11 10,-16 31,-16 21,0 31,5 31,16l0 10 -22 0 0 -10c0,-3 -3,-5 -9,-5l0 0c-6,0 -9,2 -9,5l0 47c0,3 3,5 9,5 6,0 10,-2 10,-5l0 -18 -11 0 0 -11 33 0 0 29z"/>
  </g>
 </g>
</svg>
