<?xml version="1.0" encoding="UTF-8"?>
<!DOCTYPE svg PUBLIC "-//W3C//DTD SVG 1.1//EN" "http://www.w3.org/Graphics/SVG/1.1/DTD/svg11.dtd">
<!-- Creator: CorelDRAW X6 -->
<svg xmlns="http://www.w3.org/2000/svg" xml:space="preserve" width="71px" height="30px" version="1.1" style="shape-rendering:geometricPrecision; text-rendering:geometricPrecision; image-rendering:optimizeQuality; fill-rule:evenodd; clip-rule:evenodd"
viewBox="0 0 1128 477"
 xmlns:xlink="http://www.w3.org/1999/xlink">
 <defs>
  <style type="text/css">
   <![CDATA[
    .fil1 {fill:#434242}
    .fil0 {fill:#FEFEFE}
   ]]>
  </style>
 </defs>
 <g id="Layer_x0020_1">
  <metadata id="CorelCorpID_0Corel-Layer"/>
  <rect class="fil0" width="1128" height="477"/>
  <g id="_1446869296">
   <path class="fil1" d="M754 313c-13,0 -16,-3 -21,-4l0 -106c0,-5 -1,-7 1,-9 5,-5 16,-13 25,-13 8,0 14,1 20,9 7,10 9,25 10,38 1,9 0,15 0,24 0,15 -4,30 -8,41 -5,11 -15,21 -28,21zm-27 -163c0,-4 -2,-14 -3,-19 0,-2 0,-5 -2,-5l-65 0c-1,0 -2,0 -2,2l0 325c0,2 1,2 3,1 2,0 3,-1 4,-1l63 -10c7,-1 7,0 7,-4l0 -74c4,0 16,5 29,5 12,0 17,1 30,-3 13,-3 24,-8 34,-17 32,-26 41,-70 41,-112 0,-32 -5,-59 -16,-80 -11,-22 -34,-37 -59,-37 -16,0 -27,1 -41,10 -2,1 -4,2 -6,4 -2,2 -4,3 -6,5 -2,2 -3,3 -6,5 -2,2 -3,4 -5,5z"/>
   <path class="fil1" d="M985 174c12,0 18,6 22,17 4,9 5,21 5,33l-55 0c0,-18 5,-50 28,-50zm-104 71c0,33 6,64 22,87 1,2 3,4 5,6 2,2 3,4 5,6 28,27 71,31 108,26 10,-1 17,-3 27,-6 15,-4 18,-7 30,-13l-7 -46c0,-2 0,-3 -1,-4 -1,-4 0,-3 -8,1 -20,9 -71,22 -92,1 -8,-8 -13,-20 -13,-32l126 0c0,-5 1,-9 1,-14 0,-7 1,-14 0,-21 0,-3 0,-5 0,-8 0,-4 -1,-10 -2,-14 -3,-21 -12,-49 -27,-64 -3,-3 0,-1 -6,-6 -10,-9 -17,-14 -32,-18 -26,-8 -57,-5 -81,7 -12,6 -23,16 -30,26 -8,11 -15,24 -19,37 -4,16 -7,31 -7,49z"/>
   <path class="fil1" d="M45 197c0,8 1,16 3,22 5,18 19,32 36,40 17,9 19,8 36,15 10,4 28,11 28,23 0,27 -50,13 -63,9 -8,-3 -22,-8 -29,-12 -2,-1 -2,-2 -4,-2 0,4 -4,23 -4,29l-3 21c0,2 -1,5 -1,7 11,8 38,15 52,18 30,5 74,5 99,-15 7,-5 12,-11 17,-18 16,-27 15,-73 -12,-94 -3,-2 -4,-4 -7,-5 -7,-4 -8,-5 -16,-9 -10,-5 -25,-10 -36,-14 -6,-3 -21,-10 -21,-17 0,-5 0,-9 6,-13 11,-6 37,0 47,3 5,1 10,3 15,5l14 6 5 -29c1,-4 1,-9 2,-14 0,-3 2,-12 3,-14 -6,-4 -23,-9 -31,-11 -21,-5 -31,-5 -51,-5 -17,0 -32,5 -46,12 -6,3 -14,10 -19,15 -1,1 -1,1 -2,3 -3,4 -5,8 -7,12 -2,4 -4,10 -5,15 -1,5 -2,12 -2,18z"/>
   <path class="fil1" d="M256 126l-23 4c-1,4 -2,9 -2,13l-7 40 32 0 0 111c0,22 4,43 19,58 13,13 28,16 45,18 4,0 8,0 12,0l12 0c8,0 19,-2 27,-4 2,0 4,0 4,-2l0 -58c0,-3 -3,-1 -9,0 -17,3 -35,3 -35,-20l0 -103 39 0c1,-11 9,-49 9,-57l-48 0 0 -67c0,-3 -9,0 -14,0 -5,1 -10,2 -16,3l-35 6c-3,1 -1,1 -3,11l-5 31c-1,5 -2,11 -2,16z"/>
   <path class="fil1" d="M472 153l-1 0c0,-7 -4,-20 -4,-27l-68 0 0 240 77 0 0 -155c0,-2 5,-6 6,-7 12,-9 25,-9 40,-9 4,0 5,1 8,1l0 -71c-3,0 -7,-2 -16,-2 -15,0 -29,7 -37,18 -2,2 -6,9 -6,12z"/>
   <polygon class="fil1" points="549,366 626,366 626,126 549,126 "/>
   <path class="fil1" d="M586 103c17,0 30,-8 37,-22 10,-19 2,-44 -18,-55 -11,-5 -26,-5 -36,0 -24,12 -30,45 -11,64 7,7 16,12 28,12z"/>
  </g>
 </g>
</svg>
