<?xml version="1.0" encoding="UTF-8"?>
<!DOCTYPE svg PUBLIC "-//W3C//DTD SVG 1.1//EN" "http://www.w3.org/Graphics/SVG/1.1/DTD/svg11.dtd">
<!-- Creator: CorelDRAW X6 -->
<svg xmlns="http://www.w3.org/2000/svg" xml:space="preserve" width="34px" height="34px" version="1.1" style="shape-rendering:geometricPrecision; text-rendering:geometricPrecision; image-rendering:optimizeQuality; fill-rule:evenodd; clip-rule:evenodd"
viewBox="0 0 357 357"
 xmlns:xlink="http://www.w3.org/1999/xlink">
 <defs>
  <style type="text/css">
   <![CDATA[
    .fil1 {fill:#FEFEFE}
    .fil0 {fill:#007BB6}
   ]]>
  </style>
 </defs>
 <g id="Layer_x0020_1">
  <metadata id="CorelCorpID_0Corel-Layer"/>
  <rect class="fil0" width="357" height="357"/>
  <g id="_678284048">
   <path class="fil1" d="M189 144c-6,-1 -33,1 -41,0l0 140 43 0c-1,-8 0,-54 0,-68l0 -3c0,-2 0,-1 0,-1 0,-14 4,-26 16,-30 6,-2 14,-2 20,0 5,2 8,7 10,13 3,10 2,32 2,44 0,8 0,41 0,46l44 0c1,-10 0,-23 0,-33 0,-11 0,-22 0,-33 0,-19 0,-42 -8,-57 -9,-16 -24,-22 -43,-22 -15,0 -26,4 -35,14 -4,4 -6,8 -7,9l0 -19z"/>
   <polygon class="fil1" points="77,284 120,284 120,143 77,143 "/>
   <path class="fil1" d="M93 74c-33,8 -22,55 10,50 12,-2 23,-14 20,-30 -2,-12 -15,-23 -30,-20z"/>
  </g>
 </g>
</svg>
