<?xml version="1.0" encoding="UTF-8"?>
<!DOCTYPE svg PUBLIC "-//W3C//DTD SVG 1.1//EN" "http://www.w3.org/Graphics/SVG/1.1/DTD/svg11.dtd">
<!-- Creator: CorelDRAW X6 -->
<svg xmlns="http://www.w3.org/2000/svg" xml:space="preserve" width="34px" height="34px" version="1.1" style="shape-rendering:geometricPrecision; text-rendering:geometricPrecision; image-rendering:optimizeQuality; fill-rule:evenodd; clip-rule:evenodd"
viewBox="0 0 790 790"
 xmlns:xlink="http://www.w3.org/1999/xlink">
 <defs>
  <style type="text/css">
   <![CDATA[
    .fil1 {fill:#FEFEFE}
    .fil0 {fill:#2EAAF4}
   ]]>
  </style>
 </defs>
 <g id="Layer_x0020_1">
  <metadata id="CorelCorpID_0Corel-Layer"/>
  <rect class="fil0" width="790" height="790"/>
  <path class="fil1" d="M390 307c-76,-7 -140,-29 -195,-76l-24 -22c-3,-4 -8,-8 -12,-11 -4,-5 -6,-7 -11,-12 -6,6 -13,28 -15,39 -3,17 -2,35 3,51 8,29 17,36 31,51 8,9 11,10 15,14 -23,-1 -33,-7 -51,-14 -2,53 42,108 91,115 -3,3 -4,3 -11,4 -4,0 -8,1 -13,1 -10,0 -17,-1 -26,-2 6,25 25,45 39,56 18,15 40,23 69,25l-3 3c-24,23 -81,42 -116,46 -24,3 -36,0 -45,1l-6 2c9,3 25,14 36,19 12,6 27,12 41,16 96,31 217,13 294,-45 6,-4 11,-8 16,-12 11,-10 20,-18 29,-28 3,-3 4,-4 7,-7 11,-12 33,-44 42,-58 31,-53 45,-112 45,-182 0,-1 46,-37 57,-61 -22,7 -38,15 -63,17 4,-6 39,-27 47,-63 -5,1 -14,7 -20,10 -18,8 -25,11 -44,16 -13,3 -13,-1 -20,-7 -21,-19 -56,-32 -94,-27 -49,7 -84,43 -95,86 -6,24 -4,34 -1,57z"/>
 </g>
</svg>
