<?xml version="1.0" encoding="UTF-8"?>
<!DOCTYPE svg PUBLIC "-//W3C//DTD SVG 1.1//EN" "http://www.w3.org/Graphics/SVG/1.1/DTD/svg11.dtd">
<!-- Creator: CorelDRAW X6 -->
<svg xmlns="http://www.w3.org/2000/svg" xml:space="preserve" width="34px" height="34px" version="1.1" style="shape-rendering:geometricPrecision; text-rendering:geometricPrecision; image-rendering:optimizeQuality; fill-rule:evenodd; clip-rule:evenodd"
viewBox="0 0 3483 3484"
 xmlns:xlink="http://www.w3.org/1999/xlink">
 <defs>
  <style type="text/css">
   <![CDATA[
    .fil1 {fill:#5B5B5B}
    .fil0 {fill:#FEFEFE}
    .fil7 {fill:#212121}
    .fil6 {fill:#585657}
    .fil2 {fill:#E4E4E4}
    .fil4 {fill:#E7E7E7}
    .fil5 {fill:#E8E8E8}
    .fil3 {fill:#E9E9E9}
    .fil8 {fill:#FFFEFE}
   ]]>
  </style>
 </defs>
 <g id="Layer_x0020_1">
  <metadata id="CorelCorpID_0Corel-Layer"/>
  <rect class="fil0" width="3484" height="3484"/>
  <g id="_750626240">
   <g>
    <path class="fil1" d="M1054 762c3,4 12,31 12,39 4,5 16,39 15,46 3,4 4,6 6,12 1,4 2,8 4,12 3,8 6,16 8,25 3,4 11,27 11,35 4,4 7,16 9,23 2,6 6,16 6,23 4,5 15,39 15,46 3,4 4,5 5,11 5,16 25,70 24,78l6 13c1,4 2,7 4,12l23 70c9,27 5,87 5,120 0,42 0,83 0,125 0,39 -2,87 0,125l149 -1c2,-50 0,-105 0,-156 0,-52 0,-104 0,-156 0,-12 -1,-27 0,-40 1,-11 41,-127 48,-147l17 -52c2,-4 1,-3 3,-6 0,-9 5,-19 8,-28 3,-10 7,-19 9,-27 4,-12 12,-46 19,-53 0,-8 9,-32 13,-43 2,-7 2,-9 6,-13l33 -102c2,-6 0,-2 3,-6 0,-9 5,-19 8,-28l-157 0 -25 96 -13 46 -14 52c-4,22 -9,45 -14,67 -2,11 -5,22 -7,33 -3,12 -3,29 -10,27 -4,-1 -25,-100 -26,-108l-11 -45 -11 -43 -24 -87 -9 -39c-33,-3 -103,0 -144,0 -1,0 -10,0 -10,0 -9,2 -4,-3 -7,4l13 40z"/>
    <path class="fil1" d="M2204 1446c-4,-7 -2,-109 -2,-126l0 -382 -137 0 0 527c-6,26 9,70 21,84 15,17 38,31 70,35 33,4 61,-5 85,-19 30,-17 51,-38 61,-43 4,5 10,44 12,54l129 0 0 -639 -140 0 0 517c-2,12 -96,60 -99,-8z"/>
    <path class="fil1" d="M1775 1433c-3,21 -11,36 -26,43 -18,9 -41,7 -55,-4 -28,-22 -21,-74 -21,-117 0,-26 -1,-258 1,-276 6,-56 61,-53 82,-38 27,20 20,76 20,117 0,23 1,258 -1,275zm-195 -459c-7,13 -30,27 -41,80 -8,36 -6,76 -6,114 0,79 -1,159 0,239 1,81 28,129 82,157 53,28 143,28 201,7 57,-21 91,-67 98,-141 3,-39 1,-188 1,-238 0,-77 7,-153 -36,-203 -40,-48 -97,-61 -181,-58 -25,3 -45,5 -67,14 -11,4 -18,8 -28,13 -9,5 -16,14 -24,17z"/>
   </g>
   <path class="fil2" d="M1775 1433c2,-16 1,-252 1,-275 0,-41 7,-98 -20,-117 -21,-15 -77,-18 -82,38 -2,19 -1,251 -1,276 0,43 -8,95 21,117 14,11 37,13 55,4 15,-7 24,-22 26,-43z"/>
   <path class="fil3" d="M1236 844l11 43c6,4 6,2 21,-3l49 -17c11,-3 3,2 11,-6l13 -46 -27 8c-4,2 -2,1 -6,3 -3,1 -3,1 -7,2 -4,1 -8,2 -11,4 -5,2 -2,1 -7,2 -4,1 -3,0 -7,2 -4,2 -6,3 -11,5 -4,1 -22,5 -24,8 -6,-2 -1,3 -6,-3z"/>
   <path class="fil4" d="M1257 931c1,8 22,107 26,108 7,1 8,-16 10,-27 2,-11 5,-22 7,-33 5,-22 10,-45 14,-67 0,0 -1,1 -1,2 -4,6 -3,5 -11,8l-41 13c0,0 -1,-1 -1,-1l-3 -3z"/>
   <path class="fil5" d="M1247 887l11 45 3 3c0,0 1,1 1,1l41 -13c8,-3 6,-2 11,-8 0,0 1,-1 1,-2l14 -52c-7,8 0,3 -11,6l-49 17c-15,4 -14,7 -21,3z"/>
   <rect class="fil6" x="653" y="1703" width="2177" height="1063" rx="278" ry="278"/>
   <path class="fil7" d="M2065 1464l0 -527 137 0 0 382c0,18 -3,120 2,126l-1 -509c-15,-2 -129,-2 -140,0l2 527z"/>
   <g>
    <path class="fil8" d="M1993 2510c0,19 -19,27 -40,24 -15,-2 -36,-14 -45,-22 -2,-3 -1,0 -2,-4l0 -357c2,-8 66,-45 84,-12 10,18 6,91 6,117 0,27 3,240 -2,246 0,7 2,4 -2,8zm-214 110l127 0 0 -54c14,6 88,98 175,47 15,-9 14,-14 21,-16 3,-7 8,-13 12,-22 3,-8 4,-15 7,-24l3 -44 0 -43 0 -49 0 -27 0 -57 0 -55 0 -41 0 -78c0,-7 -1,-12 1,-17l-2 -16c-1,-19 -7,-35 -7,-42 -4,-4 -6,-8 -9,-13 -3,-5 -2,-3 -5,-7 -2,-3 -3,0 -3,-5 -16,-9 -22,-16 -46,-21 -19,-5 -41,-3 -59,2 -32,10 -62,35 -82,52l-4 3 -1 -252 -126 0 0 780z"/>
    <path class="fil8" d="M1299 2544l0 4c2,9 3,18 6,26 3,9 9,15 12,23 6,2 5,6 20,15 65,40 128,0 176,-42 4,6 10,39 11,49l117 0 0 -580 -127 0c-1,79 0,158 0,237l0 223c0,9 0,9 -3,12 -5,8 -33,21 -47,23 -12,1 -23,-1 -30,-7 -5,-5 -11,-14 -9,-24l-2 -57c0,-134 2,-275 0,-407l-127 0c-1,84 0,168 0,252 0,82 -3,171 2,252z"/>
    <path class="fil8" d="M2384 2178c0,-73 69,-52 81,-41 15,14 12,35 12,59 0,20 2,51 0,70l-72 0c-18,0 -18,2 -20,-3l0 -85zm-61 -122c-3,4 -12,8 -16,12l-16 14 -6 10c-9,12 -10,18 -15,27l-3 4 -9 36c2,12 -1,27 -1,40 0,87 -2,202 0,283l3 27c2,6 3,12 5,19 2,7 5,13 7,19 13,15 0,10 35,44l5 6c7,1 18,14 53,24 22,6 44,8 67,8 51,-1 74,-8 113,-30 5,-3 1,-1 5,-2 0,0 1,-1 1,-1 7,-8 9,-7 23,-23 3,-4 17,-26 18,-27 3,-9 13,-34 11,-43l3 -17 -1 -69 -127 0c0,16 3,69 -3,79 3,28 -31,44 -60,37 -29,-7 -31,-38 -31,-69l0 -76 1 -41 220 0c0,-38 6,-209 -11,-228 -3,-11 -10,-22 -16,-30 -4,-5 -4,-3 -5,-8 -7,-4 -11,-9 -17,-14 -3,-2 -6,-4 -9,-6 -1,-1 -4,-3 -5,-3 0,0 -1,-1 -2,-1l-1 -1c-8,-3 -15,-7 -24,-10 -42,-15 -100,-17 -143,-7 -9,2 -17,4 -25,7 -8,3 -15,7 -23,10z"/>
    <path class="fil8" d="M878 1943c7,-3 112,-2 126,-1l0 677 136 0 1 -677 132 -1 0 -100 -395 -1 0 103z"/>
   </g>
  </g>
 </g>
</svg>
