<?xml version="1.0" encoding="UTF-8"?>
<!DOCTYPE svg PUBLIC "-//W3C//DTD SVG 1.1//EN" "http://www.w3.org/Graphics/SVG/1.1/DTD/svg11.dtd">
<!-- Creator: CorelDRAW X6 -->
<svg xmlns="http://www.w3.org/2000/svg" xml:space="preserve" width="34px" height="34px" version="1.1" style="shape-rendering:geometricPrecision; text-rendering:geometricPrecision; image-rendering:optimizeQuality; fill-rule:evenodd; clip-rule:evenodd"
viewBox="0 0 2084 2084"
 xmlns:xlink="http://www.w3.org/1999/xlink">
 <defs>
  <style type="text/css">
   <![CDATA[
    .fil0 {fill:#FEFEFE}
    .fil1 {fill:#585657;fill-rule:nonzero}
   ]]>
  </style>
 </defs>
 <g id="Layer_x0020_1">
  <metadata id="CorelCorpID_0Corel-Layer"/>
  <rect class="fil0" width="2083" height="2084"/>
  <path class="fil1" d="M528 754l264 0 70 -325 161 0 -70 325 299 0 69 -325 160 0 -68 325 143 0 0 162 -176 0 -53 257 229 0 0 160 -259 0 -70 322 -160 0 68 -322 -302 0 -67 322 -161 0 68 -322 -144 0 0 -160 178 0 54 -257 -232 0 0 -162zm393 162l-54 257 300 0 53 -257 -299 0z"/>
 </g>
</svg>
