<?xml version="1.0" encoding="UTF-8"?>
<!DOCTYPE svg PUBLIC "-//W3C//DTD SVG 1.1//EN" "http://www.w3.org/Graphics/SVG/1.1/DTD/svg11.dtd">
<!-- Creator: CorelDRAW X6 -->
<svg xmlns="http://www.w3.org/2000/svg" xml:space="preserve" width="34px" height="34px" version="1.1" style="shape-rendering:geometricPrecision; text-rendering:geometricPrecision; image-rendering:optimizeQuality; fill-rule:evenodd; clip-rule:evenodd"
viewBox="0 0 197 197"
 xmlns:xlink="http://www.w3.org/1999/xlink">
 <defs>
  <style type="text/css">
   <![CDATA[
    .fil1 {fill:#FEFEFE}
    .fil0 {fill:#B42322}
   ]]>
  </style>
 </defs>
 <g id="Layer_x0020_1">
  <metadata id="CorelCorpID_0Corel-Layer"/>
  <rect class="fil0" width="197" height="197"/>
  <g id="_664803280">
   <path class="fil1" d="M40 120l69 -82 12 10c-4,5 -2,13 4,18 6,5 14,5 19,1l12 10 -69 82 -12 -10c4,-5 2,-13 -4,-18 -6,-5 -14,-5 -19,-1l-12 -10z"/>
   <polygon class="fil0" points="112,110 112,97 132,97 132,110 145,110 145,130 132,130 132,143 112,143 112,130 99,130 99,110 "/>
   <polygon class="fil1" points="104,115 104,125 117,125 117,138 127,138 127,125 140,125 140,115 127,115 127,102 117,102 117,115 "/>
  </g>
 </g>
</svg>
