<?xml version="1.0" encoding="UTF-8"?>
<!DOCTYPE svg PUBLIC "-//W3C//DTD SVG 1.1//EN" "http://www.w3.org/Graphics/SVG/1.1/DTD/svg11.dtd">
<!-- Creator: CorelDRAW X6 -->
<svg xmlns="http://www.w3.org/2000/svg" xml:space="preserve" width="115px" height="30px" version="1.1" style="shape-rendering:geometricPrecision; text-rendering:geometricPrecision; image-rendering:optimizeQuality; fill-rule:evenodd; clip-rule:evenodd"
viewBox="0 0 10189 2668"
 xmlns:xlink="http://www.w3.org/1999/xlink">
 <defs>
  <style type="text/css">
   <![CDATA[
    .fil2 {fill:#0783B4}
    .fil1 {fill:#28B5D5}
    .fil0 {fill:#2D2D2D}
   ]]>
  </style>
 </defs>
 <g id="Layer_x0020_1">
  <metadata id="CorelCorpID_0Corel-Layer"/>
  <g id="_1420199824">
   <path class="fil0" d="M1929 1468c20,-86 131,-282 150,-364 477,0 480,-35 384,202 -39,97 -65,135 -188,155 -86,14 -240,7 -346,7zm-632 761c285,0 292,28 324,-51 9,-23 19,-45 29,-68 20,-48 37,-85 59,-134 21,-47 111,-247 114,-282l150 0 101 414c38,152 -37,122 381,122 55,0 9,-82 0,-118l-118 -450c106,0 247,-69 308,-121 87,-74 119,-161 167,-273 96,-224 182,-410 -303,-410l-632 0c-38,0 -65,95 -90,156l-381 883c-25,57 -51,118 -74,173 -14,35 -22,54 -39,91 -15,33 -45,69 5,69z"/>
   <path class="fil0" d="M7136 2046c-240,0 -176,-65 -21,-418 111,-252 107,-247 396,-247 149,0 74,116 17,253 -27,64 -53,128 -81,187 -76,157 -72,225 -311,225zm118 -771c9,-40 18,-30 21,-75l-289 0 -468 1086c-25,53 -150,334 -154,371l311 0 188 -444c16,-41 7,-37 37,-59 9,111 199,86 321,86 125,0 234,-36 310,-86 143,-93 236,-340 306,-508 108,-259 228,-467 -210,-467 -167,0 -256,16 -375,96z"/>
   <path class="fil1" d="M771 1205l519 -374 -585 1387 345 0c13,-57 203,-484 231,-551 41,-98 76,-182 119,-278l532 -1247c21,-48 39,-100 61,-142 -50,13 -460,327 -527,373 -49,33 -476,334 -499,369l-195 463z"/>
   <path class="fil0" d="M3225 2164l0 0zm-118 -118c-47,0 -150,7 -150,-43 0,-66 67,-198 112,-220 54,-26 235,-16 316,-16 -3,38 -21,65 -37,103 -56,133 -52,176 -242,176zm118 118c-18,79 -77,64 279,64l256 -580c28,-67 58,-125 81,-198 70,-231 -71,-240 -258,-264 -68,-9 -184,-16 -269,-6 -67,7 -187,20 -259,20 -17,72 -69,137 -75,204l268 -22c162,1 127,-11 268,22 0,92 2,88 -43,182 -467,0 -631,-36 -789,304 -86,184 -124,312 65,346 78,14 292,15 385,-25 37,-16 60,-37 93,-46z"/>
   <path class="fil0" d="M8346 2164l0 0zm-118 -118c-47,0 -150,7 -150,-43 0,-66 67,-198 112,-220 54,-26 235,-16 316,-16l-78 200c-35,71 -102,78 -200,78zm118 118c-13,57 -57,66 86,64 64,-1 129,0 193,0l256 -580c135,-326 190,-414 -177,-462 -239,-31 -324,14 -528,14 -17,72 -69,137 -75,204l268 -22c162,1 127,-11 268,22 0,40 4,66 -7,100 -6,17 -28,67 -36,82 -467,0 -631,-36 -789,304 -86,184 -124,312 65,346 78,14 292,15 385,-25 37,-16 60,-37 93,-46z"/>
   <path class="fil0" d="M5207 2046c-253,0 -173,-87 -32,-407 109,-249 100,-257 375,-257 167,0 80,156 29,264 -124,258 -102,400 -371,400zm-204 193c367,0 635,12 808,-403 156,-375 351,-658 -262,-658 -527,0 -602,265 -754,607 -42,95 -144,307 -14,396 45,31 148,57 221,57z"/>
   <path class="fil0" d="M9364 1907l3 3c0,0 -4,-2 -3,-3zm-664 761l321 0 877 -1084c39,-49 276,-320 291,-374l-321 0c-8,29 -93,142 -116,173l-377 513c0,-92 43,-410 55,-535 19,-194 94,-151 -322,-151 0,74 -11,128 -11,214l-22 685c-1,127 10,98 -52,173 -36,43 -75,83 -109,127 -49,63 -172,194 -214,257z"/>
   <path class="fil0" d="M4468 1414c-39,53 -745,596 -779,656 -15,27 -20,46 -32,75 -15,34 -23,37 -24,83l889 0c34,0 38,-38 63,-98 17,-42 34,-70 44,-116l-504 0 448 -376c75,-61 151,-119 224,-183 141,-125 61,-16 139,-172 17,-34 24,-36 25,-82l-879 0c-8,36 -40,99 -57,136 -32,71 -46,80 56,78 129,-1 258,-1 386,-1z"/>
   <path class="fil2" d="M771 1205c-14,12 -2,1 -9,16l-418 996 362 0 585 -1387 -519 374z"/>
   <path class="fil0" d="M6450 1329c12,-51 38,-66 43,-129l-289 0 -424 982c-27,69 1,47 274,47 33,0 41,-42 70,-112l170 -398c39,-93 66,-179 147,-228 88,-52 194,-45 330,-45 8,-35 39,-96 53,-129 19,-44 43,-90 54,-139 -122,0 -163,-2 -254,35 -124,50 -122,80 -174,115z"/>
   <path class="fil1" d="M344 2218l418 -996c-33,8 -39,20 -68,41l-378 276c-33,24 -38,23 -55,63l-261 617 344 0z"/>
  </g>
 </g>
</svg>
