<?xml version="1.0" encoding="UTF-8"?>
<!DOCTYPE svg PUBLIC "-//W3C//DTD SVG 1.1//EN" "http://www.w3.org/Graphics/SVG/1.1/DTD/svg11.dtd">
<!-- Creator: CorelDRAW X6 -->
<svg xmlns="http://www.w3.org/2000/svg" xml:space="preserve" width="34px" height="34px" version="1.1" style="shape-rendering:geometricPrecision; text-rendering:geometricPrecision; image-rendering:optimizeQuality; fill-rule:evenodd; clip-rule:evenodd"
viewBox="0 0 280 280"
 xmlns:xlink="http://www.w3.org/1999/xlink">
 <defs>
  <style type="text/css">
   <![CDATA[
    .fil1 {fill:#FEFEFE}
    .fil0 {fill:#3A5999}
   ]]>
  </style>
 </defs>
 <g id="Layer_x0020_1">
  <metadata id="CorelCorpID_0Corel-Layer"/>
  <rect class="fil0" width="280" height="280"/>
  <path class="fil1" d="M147 58c0,0 -5,1 -6,1 -10,3 -13,8 -14,8 0,0 0,0 0,0l-3 4c0,0 -1,3 -2,4 -2,4 -2,9 -3,14 0,7 0,15 0,22l-17 0 0 28 17 0c0,0 0,0 0,0 0,1 0,74 0,82l34 0c0,-7 0,-14 0,-21l0 -62 22 0 3 -28 -26 0c0,-3 0,-6 0,-9 0,-5 -1,-12 3,-15 2,-1 4,-2 7,-2 1,0 14,0 15,0l0 -28c-4,0 -9,0 -13,0l-13 0c-2,0 -3,0 -5,0z"/>
 </g>
</svg>
