<?xml version="1.0" encoding="UTF-8"?>
<!DOCTYPE svg PUBLIC "-//W3C//DTD SVG 1.1//EN" "http://www.w3.org/Graphics/SVG/1.1/DTD/svg11.dtd">
<!-- Creator: CorelDRAW X6 -->
<svg xmlns="http://www.w3.org/2000/svg" xml:space="preserve" width="34px" height="34px" version="1.1" style="shape-rendering:geometricPrecision; text-rendering:geometricPrecision; image-rendering:optimizeQuality; fill-rule:evenodd; clip-rule:evenodd"
viewBox="0 0 802 802"
 xmlns:xlink="http://www.w3.org/1999/xlink">
 <defs>
  <style type="text/css">
   <![CDATA[
    .fil0 {fill:#FEFEFE}
    .fil1 {fill:#585657}
   ]]>
  </style>
 </defs>
 <g id="Layer_x0020_1">
  <metadata id="CorelCorpID_0Corel-Layer"/>
  <rect class="fil0" width="802" height="802"/>
  <path class="fil1" d="M396 311c-77,-7 -142,-29 -198,-77l-24 -22c-3,-4 -9,-8 -12,-11 -4,-5 -6,-7 -11,-12 -6,6 -13,29 -15,40 -3,17 -2,35 3,52 9,29 17,36 32,52 8,9 11,10 15,14 -24,-1 -33,-7 -52,-14 -2,54 42,109 92,117 -3,3 -4,3 -11,4 -4,1 -9,1 -13,1 -10,0 -17,-1 -26,-2 6,25 26,45 39,57 18,15 41,24 70,26l-3 3c-25,23 -82,43 -118,47 -24,3 -37,0 -46,1l-6 2c9,3 25,14 37,20 12,6 28,12 42,16 97,32 220,13 298,-46 6,-4 11,-8 16,-13 12,-10 21,-18 30,-28 3,-3 4,-4 7,-7 11,-12 34,-45 42,-59 32,-54 46,-114 46,-185 0,-1 47,-37 58,-62 -22,7 -39,15 -64,17 4,-6 40,-27 48,-64 -5,1 -14,7 -20,10 -18,8 -25,11 -45,16 -13,3 -13,-1 -20,-7 -22,-20 -57,-33 -95,-27 -49,8 -85,44 -97,87 -6,24 -4,34 -1,58z"/>
 </g>
</svg>
