<?xml version="1.0" encoding="UTF-8"?>
<!DOCTYPE svg PUBLIC "-//W3C//DTD SVG 1.1//EN" "http://www.w3.org/Graphics/SVG/1.1/DTD/svg11.dtd">
<!-- Creator: CorelDRAW X6 -->
<svg xmlns="http://www.w3.org/2000/svg" xml:space="preserve" width="34px" height="34px" version="1.1" style="shape-rendering:geometricPrecision; text-rendering:geometricPrecision; image-rendering:optimizeQuality; fill-rule:evenodd; clip-rule:evenodd"
viewBox="0 0 3734 3734"
 xmlns:xlink="http://www.w3.org/1999/xlink">
 <defs>
  <style type="text/css">
   <![CDATA[
    .fil1 {fill:#5B5B5B}
    .fil0 {fill:#FEFEFE}
    .fil7 {fill:#212121}
    .fil6 {fill:#BE211C}
    .fil2 {fill:#E4E4E4}
    .fil4 {fill:#E7E7E7}
    .fil5 {fill:#E8E8E8}
    .fil3 {fill:#E9E9E9}
    .fil8 {fill:#FFFEFE}
   ]]>
  </style>
 </defs>
 <g id="Layer_x0020_1">
  <metadata id="CorelCorpID_0Corel-Layer"/>
  <rect class="fil0" width="3734" height="3734"/>
  <g id="_678343856">
   <g>
    <path class="fil1" d="M1130 817c3,4 13,34 13,42 5,5 17,42 17,50 4,4 4,7 6,13 1,4 3,8 4,12 3,8 6,17 8,26 3,5 12,29 11,37 4,5 7,17 10,24 2,7 7,17 6,24 5,5 17,42 16,50 4,4 4,6 6,12 5,17 27,75 26,83l6 13c1,5 2,8 4,12l25 75c10,29 5,93 5,128 0,45 0,90 0,134 0,42 -3,93 0,134l160 -1c2,-54 0,-112 0,-167 0,-56 0,-112 0,-167 0,-13 -1,-29 0,-42 1,-12 44,-136 51,-157l18 -55c2,-5 1,-3 4,-6 0,-10 5,-20 8,-30 4,-10 7,-21 10,-29 4,-13 13,-49 20,-57 0,-9 10,-35 14,-46 3,-8 2,-10 6,-14l35 -110c3,-6 1,-3 4,-6 0,-9 5,-20 8,-30l-168 0 -27 103 -14 50 -15 55c-4,23 -10,48 -15,71 -2,12 -5,23 -7,35 -3,13 -4,31 -11,29 -4,-1 -26,-107 -28,-116l-11 -48 -12 -46 -25 -93 -10 -42c-36,-3 -110,0 -155,0 -1,0 -11,0 -11,0 -10,2 -5,-3 -8,4l14 43z"/>
    <path class="fil1" d="M2362 1550c-5,-7 -2,-117 -2,-136l0 -409 -147 0 0 565c-7,27 9,75 23,90 16,19 41,33 75,37 36,5 65,-6 91,-20 33,-18 55,-40 65,-47 4,6 11,47 13,58l138 0 1 -685 -150 0 0 554c-2,13 -103,64 -106,-8z"/>
    <path class="fil1" d="M1903 1536c-3,23 -12,39 -28,46 -19,9 -44,7 -59,-4 -30,-23 -22,-80 -22,-125 0,-27 -1,-276 1,-296 6,-60 65,-57 88,-41 29,21 21,82 21,126 0,25 2,277 -1,294zm-209 -493c-7,14 -32,29 -44,86 -8,39 -6,81 -6,122 0,85 -1,171 0,256 1,87 30,139 88,169 57,30 153,30 216,8 61,-22 98,-71 105,-151 4,-42 1,-201 1,-255 0,-83 7,-164 -38,-218 -43,-51 -104,-65 -194,-62 -26,3 -49,6 -72,15 -11,4 -20,8 -30,14 -9,6 -18,15 -26,18z"/>
   </g>
   <path class="fil2" d="M1903 1536c2,-18 1,-270 1,-294 0,-44 8,-105 -21,-126 -23,-16 -82,-19 -88,41 -2,20 -1,269 -1,296 0,46 -8,102 22,125 15,11 40,13 59,4 16,-8 26,-23 28,-46z"/>
   <path class="fil3" d="M1324 905l12 46c7,4 6,2 22,-3l53 -18c12,-3 4,2 11,-6l14 -50 -29 8c-5,2 -2,1 -6,3 -4,1 -3,1 -8,2 -5,1 -8,2 -12,4 -6,3 -2,1 -7,2 -5,1 -3,0 -7,2 -5,2 -6,4 -12,5 -4,1 -23,5 -26,8 -6,-2 -1,3 -7,-4z"/>
   <path class="fil4" d="M1348 998c1,8 23,115 28,116 7,1 8,-17 11,-29 2,-12 5,-23 7,-35 5,-24 11,-48 15,-71 0,1 -1,1 -1,2 -5,6 -3,5 -12,8l-43 14c0,0 -1,-1 -1,-1l-4 -3z"/>
   <path class="fil5" d="M1336 951l11 48 4 3c0,0 1,1 1,1l43 -14c8,-3 7,-2 12,-8 0,-1 1,-1 1,-2l15 -55c-8,9 0,3 -11,6l-53 18c-16,5 -15,7 -22,3z"/>
   <rect class="fil6" x="700" y="1825" width="2333" height="1140" rx="298" ry="298"/>
   <path class="fil7" d="M2213 1569l0 -565 147 0 0 409c0,19 -3,128 2,136l-1 -546c-16,-2 -138,-2 -150,0l2 565z"/>
   <g>
    <path class="fil8" d="M2137 2690c1,21 -21,29 -43,26 -17,-3 -38,-15 -48,-23 -2,-3 -1,0 -2,-4l0 -383c2,-8 71,-49 91,-13 11,19 6,97 6,125 0,29 3,257 -2,264 1,7 2,4 -2,8zm-230 118l136 0 0 -57c15,6 94,105 188,50 16,-9 15,-15 23,-17 3,-8 9,-14 12,-23 4,-9 5,-17 7,-26l3 -47 0 -46 0 -53 0 -29 0 -62 0 -58 0 -44 0 -84c0,-7 -1,-13 1,-18l-3 -18c-1,-21 -8,-37 -8,-45 -5,-4 -6,-9 -10,-14 -3,-5 -2,-3 -6,-7 -2,-3 -3,0 -4,-5 -17,-9 -24,-17 -49,-23 -21,-5 -44,-4 -64,3 -34,11 -67,38 -88,56l-4 4 -1 -270 -136 -1 0 836z"/>
    <path class="fil8" d="M1392 2727l0 4c2,10 3,19 6,28 4,10 10,17 13,25 6,2 6,7 22,16 69,42 137,0 189,-44 5,6 10,42 12,53l125 -1 0 -622 -136 0c-1,84 0,170 0,254l0 239c0,9 0,10 -3,13 -5,8 -36,23 -50,24 -12,1 -24,-1 -32,-7 -6,-5 -12,-15 -10,-26l-2 -61c0,-144 2,-295 0,-437l-136 1c-1,90 0,180 0,270 0,88 -3,183 2,270z"/>
    <path class="fil8" d="M2555 2334c0,-78 74,-56 87,-44 16,15 13,37 13,63 0,22 2,54 -1,75l-77 0c-20,0 -19,2 -22,-3l0 -91zm-65 -131c-3,4 -13,9 -17,13l-17 15 -7 11c-10,13 -10,19 -16,29l-3 5 -9 38c2,13 -1,29 -1,43 0,93 -2,217 1,304l4 29c2,6 3,13 5,20 2,7 5,13 7,20 14,16 0,11 37,48l5 7c8,1 19,15 56,25 23,6 47,9 72,8 55,-1 79,-8 121,-32 6,-3 1,-2 6,-2 0,0 1,-1 1,-1 7,-9 10,-7 24,-24 3,-4 18,-28 19,-29 3,-10 14,-36 12,-46l3 -18 -1 -74 -136 0c0,17 3,74 -3,85 4,30 -33,47 -64,40 -31,-8 -33,-40 -33,-74l0 -81 1 -44 235 1c0,-41 6,-224 -12,-244 -3,-12 -11,-23 -17,-32 -4,-5 -4,-4 -5,-8 -7,-4 -11,-10 -18,-15 -3,-2 -6,-4 -10,-7 -2,-1 -5,-3 -6,-4 0,0 -2,-1 -2,-2l-1 -1c-9,-3 -16,-7 -25,-11 -44,-17 -107,-18 -153,-8 -10,2 -18,4 -27,8 -9,3 -16,8 -24,10z"/>
    <path class="fil8" d="M942 2083c8,-3 120,-2 136,-1l0 726 145 0 1 -726 142 -1 0 -107 -424 -1 0 110z"/>
   </g>
  </g>
 </g>
</svg>
