<?xml version="1.0" encoding="UTF-8"?>
<!DOCTYPE svg PUBLIC "-//W3C//DTD SVG 1.1//EN" "http://www.w3.org/Graphics/SVG/1.1/DTD/svg11.dtd">
<!-- Creator: CorelDRAW X6 -->
<svg xmlns="http://www.w3.org/2000/svg" xml:space="preserve" width="51px" height="31px" version="1.1" style="shape-rendering:geometricPrecision; text-rendering:geometricPrecision; image-rendering:optimizeQuality; fill-rule:evenodd; clip-rule:evenodd"
viewBox="0 0 869 522"
 xmlns:xlink="http://www.w3.org/1999/xlink">
 <defs>
  <style type="text/css">
   <![CDATA[
    .str0 {stroke:#C5C6C6;stroke-width:15.3565}
    .fil0 {fill:#FEFEFE}
    .fil1 {fill:#00BAF2}
    .fil2 {fill:#042E6F}
   ]]>
  </style>
 </defs>
 <g id="Layer_x0020_1">
  <metadata id="CorelCorpID_0Corel-Layer"/>
  <g id="_914365696">
   <polygon class="fil0 str0" points="8,8 861,8 861,515 8,515 "/>
   <g>
    <path class="fil1" d="M595 187c-4,9 -2,55 -2,70 0,24 0,48 0,72 0,47 -6,39 32,40 17,0 13,-7 13,-23 0,-18 -1,-102 1,-107 3,-10 19,-10 24,-3 4,6 2,95 2,106 0,17 -3,27 8,28 8,1 30,1 35,-1 4,-9 2,-93 2,-114 0,-14 -1,-25 15,-24 15,1 12,14 12,27l0 77c0,10 -3,29 4,34 8,2 34,2 40,-1 3,-11 1,-117 1,-137 0,-20 -14,-35 -28,-41 -9,-4 -20,-5 -31,-2 -14,4 -17,10 -22,12 -5,-3 -7,-6 -13,-9 -17,-8 -39,-4 -50,6l-2 -8c-8,-2 -34,-2 -41,0z"/>
    <path class="fil2" d="M283 290c6,4 3,33 2,37 -5,2 -15,3 -21,1 -7,-2 -5,-11 -5,-18 0,-6 -2,-17 3,-20 5,-3 17,-2 21,0zm-50 -101c-2,8 -2,31 0,39 14,5 38,-2 52,4 8,28 -23,4 -52,22 -21,13 -20,35 -20,57 0,28 3,44 23,54 15,7 53,4 72,4 30,0 23,-26 23,-53 0,-26 0,-51 0,-77 0,-26 -7,-42 -28,-49 -12,-4 -61,-6 -71,-2z"/>
    <path class="fil2" d="M349 188c-3,8 -2,66 -1,78 1,23 16,39 37,43 9,1 32,-2 35,5 7,14 -19,11 -27,11 -36,0 -31,-4 -31,28 0,22 -1,17 53,17 35,0 51,-18 51,-52l0 -102c0,-27 6,-29 -22,-29 -28,0 -23,-1 -23,28 0,13 3,39 -2,49 -5,2 -20,4 -24,-1 -5,-7 3,-67 -4,-74 -6,-4 -34,-3 -41,0z"/>
    <path class="fil2" d="M131 232c10,0 17,-1 25,2 1,2 2,4 2,8 0,32 4,29 -27,29l0 -38zm0 83c22,0 44,3 58,-10 16,-15 14,-28 14,-53 0,-25 2,-41 -14,-55 -15,-13 -34,-10 -57,-10 -12,0 -23,0 -35,0 -15,0 -12,8 -12,22l0 136c0,12 -4,24 9,25 41,1 36,2 36,-26 0,-9 0,-19 0,-28z"/>
    <path class="fil1" d="M553 232c26,0 24,3 24,-23 0,-26 1,-22 -25,-22 0,-10 2,-26 -2,-34 -15,-4 -22,14 -29,22 -4,4 -9,8 -17,10 -4,1 -7,1 -11,2 -6,0 -7,0 -9,4 -3,5 -2,34 0,40 8,3 14,1 24,2 0,17 -2,128 1,135 4,7 38,3 41,2 5,-11 2,-115 2,-137z"/>
   </g>
  </g>
 </g>
</svg>
