<?xml version="1.0" encoding="UTF-8"?>
<!DOCTYPE svg PUBLIC "-//W3C//DTD SVG 1.1//EN" "http://www.w3.org/Graphics/SVG/1.1/DTD/svg11.dtd">
<!-- Creator: CorelDRAW X6 -->
<svg xmlns="http://www.w3.org/2000/svg" xml:space="preserve" width="34px" height="34px" version="1.1" style="shape-rendering:geometricPrecision; text-rendering:geometricPrecision; image-rendering:optimizeQuality; fill-rule:evenodd; clip-rule:evenodd"
viewBox="0 0 360 360"
 xmlns:xlink="http://www.w3.org/1999/xlink">
 <defs>
  <style type="text/css">
   <![CDATA[
    .fil0 {fill:#FEFEFE}
    .fil1 {fill:#585657}
   ]]>
  </style>
 </defs>
 <g id="Layer_x0020_1">
  <metadata id="CorelCorpID_0Corel-Layer"/>
  <rect class="fil0" width="360" height="360"/>
  <g id="_748803632">
   <path class="fil1" d="M191 145c-6,-1 -33,1 -42,0l0 141 43 0c-1,-8 0,-55 0,-69l0 -3c0,-2 0,-1 0,-1 0,-14 4,-26 16,-31 6,-2 15,-2 20,0 5,2 8,7 10,13 3,10 2,32 2,45 0,8 0,42 0,46l44 0c1,-10 0,-23 0,-33 0,-11 0,-22 0,-33 0,-19 0,-42 -8,-57 -9,-17 -25,-22 -44,-22 -15,0 -26,4 -36,14 -4,4 -6,8 -7,9l0 -19z"/>
   <polygon class="fil1" points="77,286 121,286 121,144 77,144 "/>
   <path class="fil1" d="M94 75c-33,8 -22,56 10,50 12,-2 23,-14 20,-30 -2,-12 -15,-23 -30,-20z"/>
  </g>
 </g>
</svg>
