<?xml version="1.0" encoding="UTF-8"?>
<!DOCTYPE svg PUBLIC "-//W3C//DTD SVG 1.1//EN" "http://www.w3.org/Graphics/SVG/1.1/DTD/svg11.dtd">
<!-- Creator: CorelDRAW X6 -->
<svg xmlns="http://www.w3.org/2000/svg" xml:space="preserve" width="500px" height="33px" version="1.1" style="shape-rendering:geometricPrecision; text-rendering:geometricPrecision; image-rendering:optimizeQuality; fill-rule:evenodd; clip-rule:evenodd"
viewBox="0 0 50000 3300"
 xmlns:xlink="http://www.w3.org/1999/xlink">
 <defs>
  <style type="text/css">
   <![CDATA[
    .fil4 {fill:#727271}
    .fil0 {fill:black}
    .fil3 {fill:#0D070A}
    .fil2 {fill:yellow}
    .fil1 {fill:#FEFEFE;fill-rule:nonzero}
   ]]>
  </style>
 </defs>
 <g id="Layer_x0020_1">
  <metadata id="CorelCorpID_0Corel-Layer"/>
  <g id="_155343056">
   <rect class="fil0" width="50000" height="3300"/>
   <path class="fil1" d="M6761 1905l173 -550 5 0 160 550 -338 0zm-752 638l553 0 80 -255 568 0 75 255 570 0 -650 -1785 -537 0 -658 1785z"/>
   <path id="1" class="fil1" d="M7976 2543l795 0c622,0 912,-347 912,-895 0,-450 -210,-890 -805,-890l-902 0 0 1785zm550 -1327l175 0c398,0 433,312 433,425 0,167 -50,445 -392,445l-215 0 0 -870z"/>
   <polygon id="2" class="fil1" points="9921,2543 11426,2543 11426,2085 10471,2085 10471,1863 11313,1863 11313,1438 10471,1438 10471,1215 11398,1215 11398,758 9921,758 "/>
   <path id="3" class="fil1" d="M13840 2543l348 0 0 -982 -730 0 0 382 242 0c-27,133 -157,198 -285,198 -335,0 -402,-293 -402,-460 0,-122 -13,-520 365,-520 130,0 240,93 260,223l528 0c-80,-420 -368,-668 -822,-668 -402,0 -880,272 -880,953 0,507 325,917 852,917 195,0 385,-68 507,-225l18 182z"/>
   <polygon id="4" class="fil1" points="14463,2543 14958,2543 14958,758 14463,758 "/>
   <path id="5" class="fil1" d="M16601 1893c0,-360 -220,-680 -707,-680 -488,0 -707,320 -707,680 0,360 220,682 707,682 487,0 707,-323 707,-682zm-495 0c0,137 -25,323 -212,323 -188,0 -213,-185 -213,-323 0,-138 25,-320 213,-320 187,0 212,182 212,320z"/>
   <path id="6" class="fil1" d="M17728 1893c0,155 -40,323 -218,323 -177,0 -218,-168 -218,-323 0,-153 40,-320 218,-320 178,0 218,167 218,320zm-912 650l477 0 0 -143 5 0c62,83 137,175 380,175 368,0 545,-362 545,-687 0,-305 -118,-675 -553,-675 -147,0 -280,65 -355,175l-5 0 0 -630 -495 0 0 1785z"/>
   <path id="7" class="fil1" d="M19225 2080c-8,135 -95,202 -208,202 -90,0 -155,-60 -155,-120 0,-88 57,-115 167,-140 68,-15 135,-32 195,-62l0 120zm475 -360c0,-250 5,-508 -615,-508 -152,0 -317,15 -443,75 -127,60 -217,168 -225,350l460 0c2,-55 32,-133 185,-133 80,0 163,33 163,120 0,83 -68,103 -135,115 -253,48 -732,33 -732,443 0,272 207,392 457,392 160,0 313,-35 418,-155l5 0c-3,35 5,87 17,122l505 0c-55,-83 -60,-193 -60,-290l0 -532z"/>
   <polygon id="8" class="fil1" points="19973,2543 20468,2543 20468,758 19973,758 "/>
   <path id="9" class="fil1" d="M21480 1943c5,570 582,643 785,643 398,0 825,-150 825,-615 0,-328 -250,-445 -503,-515 -252,-70 -507,-98 -518,-225 0,-100 123,-120 198,-120 55,0 117,12 162,45 45,30 75,75 65,143l520 0c-15,-435 -358,-583 -745,-583 -368,0 -720,178 -720,590 0,360 323,437 605,517 307,88 385,113 385,205 0,132 -138,162 -227,162 -103,0 -223,-23 -263,-130 -13,-32 -20,-73 -20,-118l-550 0z"/>
   <path id="10" class="fil1" d="M23673 1748c23,-140 107,-217 255,-217 128,0 217,97 217,217l-472 0zm947 258c0,-505 -223,-793 -737,-793 -410,0 -685,308 -685,685 0,433 312,677 727,677 295,0 568,-130 668,-410l-463 0c-40,62 -127,92 -207,92 -155,0 -240,-105 -253,-252l950 0z"/>
   <path id="11" class="fil1" d="M26028 1623c-12,-332 -350,-410 -630,-410 -260,0 -613,85 -613,413 0,223 153,343 530,407 230,40 272,63 272,138 0,75 -103,100 -167,100 -60,0 -108,-15 -133,-38 -38,-32 -58,-70 -60,-115l-473 0c8,335 343,457 647,457 315,0 660,-98 660,-457 0,-213 -145,-310 -310,-363 -165,-55 -353,-65 -435,-100 -28,-13 -58,-30 -58,-68 0,-85 80,-100 150,-100 40,0 80,13 110,38 32,23 55,55 58,98l450 0z"/>
   <path id="12" class="fil1" d="M27463 1623c-12,-332 -350,-410 -630,-410 -260,0 -613,85 -613,413 0,223 153,343 530,407 230,40 272,63 272,138 0,75 -103,100 -167,100 -60,0 -108,-15 -133,-38 -38,-32 -58,-70 -60,-115l-473 0c8,335 343,457 647,457 315,0 660,-98 660,-457 0,-213 -145,-310 -310,-363 -165,-55 -353,-65 -435,-100 -28,-13 -58,-30 -58,-68 0,-85 80,-100 150,-100 40,0 80,13 110,38 32,23 55,55 58,98l450 0z"/>
   <path id="13" class="fil1" d="M27708 2543l495 0 0 -1297 -495 0 0 1297zm495 -1785l-495 0 0 347 495 0 0 -347z"/>
   <path id="14" class="fil1" d="M29845 1893c0,-360 -220,-680 -707,-680 -488,0 -707,320 -707,680 0,360 220,682 707,682 487,0 707,-323 707,-682zm-495 0c0,137 -25,323 -212,323 -188,0 -213,-185 -213,-323 0,-138 25,-320 213,-320 187,0 212,182 212,320z"/>
   <path id="15" class="fil1" d="M30060 2543l495 0 0 -685c0,-208 113,-250 197,-250 145,0 162,105 162,255l0 680 495 0 0 -890c0,-298 -212,-440 -445,-440 -197,0 -330,68 -422,198l-5 0 0 -165 -477 0 0 1297z"/>
   <path id="16" class="fil1" d="M32880 1623c-12,-332 -350,-410 -630,-410 -260,0 -613,85 -613,413 0,223 153,343 530,407 230,40 272,63 272,138 0,75 -103,100 -167,100 -60,0 -108,-15 -133,-38 -38,-32 -58,-70 -60,-115l-473 0c8,335 343,457 647,457 315,0 660,-98 660,-457 0,-213 -145,-310 -310,-363 -165,-55 -353,-65 -435,-100 -28,-13 -58,-30 -58,-68 0,-85 80,-100 150,-100 40,0 80,13 110,38 32,23 55,55 58,98l450 0z"/>
   <polygon id="17" class="fil1" points="33955,2543 34475,2543 34475,1398 34480,1398 34790,2543 35200,2543 35510,1398 35515,1398 35515,2543 36035,2543 36035,758 35252,758 34997,1808 34992,1808 34737,758 33955,758 "/>
   <path id="18" class="fil1" d="M37660 1245l-495 0 0 685c0,207 -112,250 -197,250 -145,0 -162,-105 -162,-255l0 -680 -495 0 0 890c0,297 212,440 445,440 197,0 330,-68 422,-197l5 0 0 165 477 0 0 -1297z"/>
   <path id="19" class="fil1" d="M37927 2543l495 0 0 -702c0,-135 43,-233 168,-233 150,0 162,110 162,233l0 702 495 0 0 -702c0,-135 43,-233 167,-233 150,0 163,110 163,233l0 702 495 0 0 -890c0,-210 -112,-440 -445,-440 -322,0 -422,188 -442,203 -60,-130 -210,-203 -350,-203 -180,0 -325,55 -425,205l-5 0 0 -173 -477 0 0 1297z"/>
   <path id="20" class="fil1" d="M41250 1893c0,155 -40,323 -218,323 -177,0 -218,-168 -218,-323 0,-153 40,-320 218,-320 178,0 218,167 218,320zm-912 650l477 0 0 -143 5 0c62,83 137,175 380,175 368,0 545,-362 545,-687 0,-305 -118,-675 -553,-675 -147,0 -280,65 -355,175l-5 0 0 -630 -495 0 0 1785z"/>
   <path id="21" class="fil1" d="M42747 2080c-8,135 -95,202 -208,202 -90,0 -155,-60 -155,-120 0,-88 57,-115 167,-140 68,-15 135,-32 195,-62l0 120zm475 -360c0,-250 5,-508 -615,-508 -152,0 -317,15 -443,75 -127,60 -217,168 -225,350l460 0c2,-55 32,-133 185,-133 80,0 163,33 163,120 0,83 -68,103 -135,115 -253,48 -732,33 -732,443 0,272 207,392 457,392 160,0 313,-35 418,-155l5 0c-3,35 5,87 17,122l505 0c-55,-83 -60,-193 -60,-290l0 -532z"/>
   <path id="22" class="fil1" d="M43495 2543l495 0 0 -1297 -495 0 0 1297zm495 -1785l-495 0 0 347 495 0 0 -347z"/>
   <g>
    <polygon class="fil2" points="685,0 3180,0 3180,1810 2455,2722 685,2722 "/>
    <path class="fil3" d="M1701 1664c-14,-53 -22,-130 -6,-182 33,-176 185,-250 322,-191 30,13 53,31 75,55 1,1 9,10 10,12 9,14 5,5 8,18 21,-10 11,-55 11,-80 0,-35 5,-58 -10,-88 -20,-1 -75,-25 -107,-31 -108,-20 -245,4 -329,79 -59,-38 -67,-62 -149,-77 -79,-15 -163,-17 -240,8 -103,32 -150,109 -160,213l121 0c16,-58 21,-88 88,-113 66,-24 228,-25 251,61 13,49 -13,85 -56,105 -118,56 -246,45 -365,118 -95,58 -96,202 -24,282 94,105 303,141 499,39 -9,-23 -19,-27 -34,-48 -7,-10 -10,-17 -16,-26 -21,-29 -3,-12 -26,-19 -25,48 -197,72 -288,22 -73,-41 -76,-132 -2,-174 25,-14 55,-23 83,-31 43,-11 167,-44 204,-47 7,205 105,337 309,379 40,2 73,4 113,-1 122,-14 242,-94 278,-216 15,-24 17,-61 53,-74 33,-37 115,-50 188,-63 89,-16 212,-51 247,-144 53,-141 -36,-229 -147,-264 -111,-35 -287,11 -309,22l-1 -299 -124 -2c0,170 34,553 -21,762 -65,242 -380,239 -443,-4zm755 -174l-163 37 1 -102c1,-67 23,-114 91,-139 200,-75 414,126 71,204zm-144 320l-26 -13 -66 91c198,94 540,106 556,-185l-118 1c-14,168 -284,176 -346,107z"/>
   </g>
   <g>
    <g>
     <rect class="fil4" transform="matrix(1.93314 -0.512793 1.0875 1.7807 47051.6 569.185)" width="205" height="689" rx="100" ry="100"/>
     <rect class="fil4" transform="matrix(1.93314 0.512793 1.0875 -1.7807 47051.6 2730.82)" width="205" height="689" rx="100" ry="100"/>
    </g>
    <g>
     <rect class="fil4" transform="matrix(1.93314 -0.512793 1.0875 1.7807 48013.5 569.185)" width="205" height="689" rx="100" ry="100"/>
     <rect class="fil4" transform="matrix(1.93314 0.512793 1.0875 -1.7807 48013.5 2730.82)" width="205" height="689" rx="100" ry="100"/>
    </g>
   </g>
  </g>
 </g>
</svg>
